<?xml version="1.0" encoding="utf-8"?>
<!-- Generator: Adobe Illustrator 15.1.0, SVG Export Plug-In . SVG Version: 6.00 Build 0)  -->
<!DOCTYPE svg PUBLIC "-//W3C//DTD SVG 1.1//EN" "http://www.w3.org/Graphics/SVG/1.1/DTD/svg11.dtd">
<svg version="1.1" id="Layer_1" xmlns="http://www.w3.org/2000/svg" xmlns:xlink="http://www.w3.org/1999/xlink" x="0px" y="0px"
	 width="512px" height="512px" viewBox="164.945 41.64 512 512" enable-background="new 164.945 41.64 512 512"
	 xml:space="preserve">
<path id="puddle" fill="#9CDAF1" d="M562.143,468.019c0,26.992-62.521,48.871-139.635,48.871
	c-77.127,0-139.648-21.879-139.648-48.871s62.519-48.877,139.648-48.877C499.621,419.142,562.143,441.031,562.143,468.019z"/>
<g id="shadow-legs">
	<path fill="#7DBBE6" d="M384.556,515.068v-34.836c0-4.498-0.813-8.262-2.173-11.439c9.009,6.996,9.617,24.578,9.617,24.578v22.352
		c8.105,0.633,16.478,1.018,25.047,1.133l-0.226-22.244c-1.241-30.406-27.303-34.127-27.303-34.127
		c-9.524-2.162-9.382,2.617-8.425,5.705c-9.345-15.936-34.388-13.877-34.388-13.877c-8.69,3.1-0.624,8.686-0.624,8.686
		c13.654,4.963,14.895,19.857,14.895,19.857v31.053c7.519,1.289,15.394,2.354,23.583,3.154L384.556,515.068z"/>
	<path fill="#7DBBE6" d="M494.39,452.31c0,0-25.047-2.059-34.391,13.881c0.958-3.09,1.104-7.873-8.424-5.709
		c0,0-26.061,3.723-27.301,34.127l-0.229,22.277c8.557-0.033,16.926-0.334,25.048-0.883v-22.635c0,0,0.611-17.58,9.618-24.576
		c-1.36,3.178-2.174,6.938-2.174,11.438v35.197c8.169-0.715,16.052-1.68,23.58-2.875v-31.699c0,0,1.241-14.895,14.895-19.855
		c0-0.014,8.058-5.602-0.631-8.703L494.39,452.31z"/>
</g>
<path id="cat" d="M668.94,265.429l0.368-1.826c-40.965-8.19-83.004-8.273-108.436-7.217c4.178-15.054,5.435-32.375,5.435-51.689
	c0-27.702-10.408-49.864-27.305-66.728c2.952-9.53,6.896-30.697-3.938-57.792c0,0-19.115-6.07-62.353,22.868
	c-16.937-4.233-34.962-6.323-53.014-6.323c-19.862,0-39.932,2.529-58.65,7.664c-44.617-30.438-64.313-24.203-64.313-24.203
	c-12.856,32.15-4.907,55.957-2.492,61.868c-15.111,16.309-24.337,37.128-24.337,62.652c0,19.269,2.194,36.556,7.553,51.581
	c-25.649-0.934-66.154-0.575-105.657,7.325l0.363,1.825c39.741-7.947,80.5-8.224,105.993-7.259c1.181,3.11,2.497,6.127,3.971,9.043
	c-25.21,0.812-68.256,4.025-109.509,15.663l0.509,1.788c41.579-11.724,84.998-14.856,109.963-15.62
	c15.062,28.078,44.759,46.21,97.589,51.906c-7.498,5.039-15.147,13.604-18.247,28.098c-10.218,4.887-42.564,16.816-61.972-16.562
	c0,0-10.864-19.863-31.657-21.418c0,0-20.171-0.309-1.392,12.57c0,0,13.497,6.359,22.809,30.26c0,0,12.149,40.766,70.771,27.688
	v42.109c0,0-1.24,14.895-14.895,19.855c0,0-8.067,5.586,0.624,8.684c0,0,37.85,3.104,37.85-27.918v-45.918
	c0,0-1.501-18.209,7.444-24.539v75.42c0,0-0.618,17.994-9.927,24.82c0,0-6.209,11.166,7.444,8.068c0,0,26.061-3.725,27.304-34.129
	l0.59-76.324h6.264l0.596,76.324c1.239,30.404,27.301,34.129,27.301,34.129c13.649,3.098,7.444-8.068,7.444-8.068
	c-9.307-6.826-9.926-24.82-9.926-24.82v-74.77c8.94,6.963,7.444,23.889,7.444,23.889v45.916c0,31.023,37.851,27.92,37.851,27.92
	c8.684-3.1,0.623-8.686,0.623-8.686c-13.653-4.961-14.895-19.855-14.895-19.855v-60.189c0-23.471-9.882-35.9-19.547-42.461
	c56.342-5.588,83.379-23.781,95.837-52.046c24.679,0.679,69.091,3.686,111.572,15.669l0.505-1.788
	c-42.239-11.914-86.357-14.996-111.286-15.723c1.181-2.855,2.211-5.825,3.126-8.88c25.306-1.052,67.543-1.039,108.664,7.178
	L668.94,265.429z"/>
<path id="face" fill="#F4CBB2" d="M511.202,203.396c12.136,10.994,19.234,24.27,19.234,38.574
	c0,66.786-49.786,68.596-111.194,68.596c-61.419,0-111.199-9.248-111.199-68.596c0-14.209,6.999-27.403,18.984-38.352
	c19.992-18.247,53.826-8.585,92.214-8.585c38.215-0.005,71.934-9.766,91.955,8.357L511.202,203.396z"/>
<path id="eyes" fill="#FFFFFF" d="M382.256,245.368c0,18.396-10.359,33.307-23.138,33.307c-12.777,0-23.137-14.91-23.137-33.307
	c0-18.394,10.359-33.298,23.137-33.298C371.897,212.083,382.256,226.978,382.256,245.368z M506.391,245.368
	c0,18.396-10.358,33.307-23.137,33.307c-12.777,0-23.137-14.91-23.137-33.307c0-18.394,10.359-33.298,23.137-33.298
	C496.032,212.083,506.391,226.978,506.391,245.368z"/>
<g>
	<path id="pupils" fill="#AD5C51" d="M374.842,245.788c0,12.263-6.915,22.2-15.426,22.2s-15.425-9.938-15.425-22.2
		c0-12.266,6.909-22.208,15.425-22.208c8.506,0,15.42,9.938,15.42,22.203L374.842,245.788z M498.964,245.788
		c0,12.263-6.915,22.2-15.425,22.2c-8.512,0-15.425-9.938-15.425-22.2c0-12.266,6.908-22.208,15.425-22.208
		c8.505,0,15.419,9.938,15.419,22.203L498.964,245.788z"/>
	<circle id="nose" fill="#AD5C51" cx="419.589" cy="274.947" r="5.785"/>
	<path id="mouth" fill="#AD5C51" d="M406.089,289.577c-0.343-0.97,0.168-2.031,1.132-2.372c0.969-0.342,2.032,0.168,2.372,1.132
		c1.491,4.203,5.478,7.027,9.927,7.027c4.448,0,8.436-2.822,9.927-7.027c0.342-0.971,1.402-1.474,2.372-1.132
		c0.971,0.341,1.474,1.402,1.134,2.372c-2.01,5.685-7.413,9.502-13.433,9.502s-11.41-3.798-13.422-9.491L406.089,289.577z"/>
</g>
<path id="octo" fill="#C3E4D8" d="M277.8,316.041c0,1.543-1.809,2.789-4.036,2.789c-2.226,0-4.036-1.246-4.036-2.789
	c0-1.545,1.81-2.797,4.036-2.797c2.228,0,4.036,1.25,4.036,2.801V316.041z M288.974,322.246c0,1.543-1.809,2.789-4.036,2.789
	c-2.226,0-4.036-1.246-4.036-2.789c0-1.545,1.81-2.797,4.036-2.797c2.227,0,4.036,1.248,4.036,2.801V322.246z M295.801,330.316
	c0,1.545-1.81,2.791-4.036,2.791s-4.036-1.246-4.036-2.791c0-1.543,1.81-2.795,4.036-2.795s4.036,1.248,4.036,2.799V330.316z
	 M302.006,339.625c0,1.543-1.809,2.789-4.036,2.789c-2.226,0-4.036-1.246-4.036-2.789c0-1.545,1.81-2.797,4.036-2.797
	c2.227,0,4.036,1.25,4.036,2.801V339.625z M308.825,348.312c0,1.545-1.809,2.791-4.036,2.791c-2.225,0-4.036-1.246-4.036-2.791
	c0-1.543,1.811-2.795,4.036-2.795c2.227,0,4.036,1.248,4.036,2.801V348.312z M318.146,355.754c0,1.543-1.809,2.789-4.036,2.789
	c-2.226,0-4.036-1.246-4.036-2.789c0-1.545,1.81-2.797,4.036-2.797c2.228,0,4.036,1.25,4.036,2.801V355.754z M331.174,360.722
	c0,1.543-1.809,2.789-4.036,2.789c-2.226,0-4.036-1.246-4.036-2.789c0-1.545,1.81-2.795,4.036-2.795
	c2.228,0,4.036,1.248,4.036,2.799V360.722z M344.148,360.722c0,1.543-1.809,2.789-4.035,2.789c-2.226,0-4.035-1.246-4.035-2.789
	c0-1.545,1.81-2.795,4.035-2.795c2.227,0,4.035,1.248,4.035,2.799V360.722z M357.308,358.568c0,1.543-1.81,2.789-4.036,2.789
	c-2.226,0-4.036-1.246-4.036-2.789c0-1.545,1.811-2.797,4.036-2.797c2.227,0,4.036,1.248,4.036,2.799V358.568z"/>
<path id="drop" fill="#9CDAF1" d="M262.982,324.322l-4.03,14.043c0,0-1.052,5.076,3.733,5.977c4.995-0.096,4.583-4.768,4.237-6.285
	L262.982,324.322z"/>
</svg>
