<?xml version="1.0" encoding="utf-8"?>
<!-- Generator: Adobe Illustrator 15.1.0, SVG Export Plug-In . SVG Version: 6.00 Build 0)  -->
<!DOCTYPE svg PUBLIC "-//W3C//DTD SVG 1.1//EN" "http://www.w3.org/Graphics/SVG/1.1/DTD/svg11.dtd">
<svg version="1.1"
	 id="Layer_1" xmlns:rdf="http://www.w3.org/1999/02/22-rdf-syntax-ns#" xmlns:cc="http://creativecommons.org/ns#" xmlns:svg="http://www.w3.org/2000/svg" xmlns:dc="http://purl.org/dc/elements/1.1/"
	 xmlns="http://www.w3.org/2000/svg" xmlns:xlink="http://www.w3.org/1999/xlink" x="0px" y="0px" width="512px" height="512px"
	 viewBox="-16 -201 512 512" enable-background="new -16 -201 512 512" xml:space="preserve">
<linearGradient id="bird_1_" gradientUnits="userSpaceOnUse" x1="3361.9094" y1="1356.0957" x2="3361.9094" y2="1303.2192" gradientTransform="matrix(4.262 0 0 -4.262 -14096.9043 5722.8535)">
	<stop  offset="0" style="stop-color:#33CCFF"/>
	<stop  offset="1" style="stop-color:#06C1FF"/>
</linearGradient>
<path id="bird" fill="url(#bird_1_)" d="M68.014,105.41c21.281,19.681,75.929,38.307,120.396-5.283
	c-7.998,1.248-14.675-0.266-19.743-5.281c-4.812-4.766-5.073-9.695-2.502-14.18c2.094-3.655,6.507-6.221,10.845-8.898
	c-7.871,1.461-14.58,0.7-20.576-2.365c-8.051-4.116-15.879-8.449-18.074-17.377c4.921-5.181,10.398-9.809,22.245-8.063
	c-11.145-3.723-21.131-8.576-28.363-15.849c-7.042-7.083-7.768-11.687-8.898-17.24c6.151-2.278,12.575-3.463,19.465-2.78
	c-15.583-7.967-22.197-18.923-25.857-30.863c-1.105-3.61-1.309-7.044-0.839-10.565c63.115,23.825,92.675,40.943,108.996,57
	c7.343-19.536,24.458-63.78,50.049-78.967c0.122,2.409-0.836,5.006-2.779,7.786c7.572-4.221,13.49-10.978,23.913-10.845
	c-1.199,4.931-4.651,8.88-11.399,11.402c6.807-2.608,13.705-4.818,20.853-6.117c6.626-1.2,6.529,4.025,2.78,6.672
	c-7.609,5.371-15.699,6.038-23.633,8.62c24.332,0.605,44.236,12.129,59.779,37.259c5.166,8.351,8.635,16.702,9.453,25.857
	c10.381,2.914,20.709,3.509,31.143,1.668c2.858-0.508,5.519-1.042,8.062-2.225c-4.055,6.086-8.737,11.085-15.291,13.347
	c-6.265,2.164-12.541,4.271-19.465,4.451c11.267,4.264,23.687,4.5,36.425,3.614c-15.585,15.001-27.513,14.64-39.482,14.459
	c-5.251,22.164-15.982,44.271-38.649,64.507c-29.736,26.549-61.746,39.213-94.815,41.987c-31.004,2.599-60.982,2.243-93.703-13.069
	C104.089,142.718,83.755,127.094,68.014,105.41L68.014,105.41z"/>
</svg>
