<?xml version="1.0" encoding="utf-8"?>
<!-- Generator: Adobe Illustrator 16.2.0, SVG Export Plug-In . SVG Version: 6.00 Build 0)  -->
<!DOCTYPE svg PUBLIC "-//W3C//DTD SVG 1.1//EN" "http://www.w3.org/Graphics/SVG/1.1/DTD/svg11.dtd">
<svg version="1.1" xmlns="http://www.w3.org/2000/svg" xmlns:xlink="http://www.w3.org/1999/xlink" x="0px" y="0px" width="512px"
	 height="512px" viewBox="0 0 512 512" enable-background="new 0 0 512 512" xml:space="preserve">
<g id="Layer_1">
	<circle id="Background" fill="#FD1313" cx="256.057" cy="255.666" r="204.965"/>
</g>
<g id="Layer_2">
	<defs>
		<circle id="Clip" cx="256.057" cy="255.667" r="204.965"/>
	</defs>
	<clipPath id="Clip_1_">
		<use xlink:href="#Clip"  overflow="visible"/>
	</clipPath>
	<g clip-path="url(#Clip_1_)">
		<path d="M95.866,218.203h40.8l3.4,21.76h1.36c7.023-7.023,14.503-13.09,22.44-18.19c7.932-5.1,17.452-7.65,28.56-7.65
			c12.011,0,21.701,2.438,29.07,7.31c7.363,4.877,13.202,11.847,17.51,20.91c7.48-7.703,15.353-14.333,23.63-19.89
			c8.271-5.551,18.073-8.33,29.409-8.33c18.132,0,31.451,6.067,39.951,18.19c8.5,12.128,12.75,28.73,12.75,49.81v104.72h-49.98
			v-98.26c0-12.24-1.646-20.624-4.93-25.16c-3.289-4.532-8.559-6.8-15.811-6.8c-8.389,0-18.02,5.44-28.9,16.321v113.899h-49.98
			v-98.26c0-12.24-1.647-20.624-4.93-25.16c-3.289-4.532-8.559-6.8-15.81-6.8c-8.617,0-18.137,5.44-28.56,16.321v113.899h-49.98
			V218.203z"/>
		<path d="M307.343,148.503h48.621v136.68h1.359l53.381-66.98h54.4l-59.16,69.36l63.58,99.28h-54.061l-38.08-65.62l-21.42,24.141
			v41.479h-48.621V148.503z"/>
	</g>
	<g clip-path="url(#Clip_1_)">
	</g>
	<g clip-path="url(#Clip_1_)">
	</g>
	<g clip-path="url(#Clip_1_)">
	</g>
	<g clip-path="url(#Clip_1_)">
	</g>
	<g clip-path="url(#Clip_1_)">
	</g>
	<g clip-path="url(#Clip_1_)">
	</g>
	<g clip-path="url(#Clip_1_)">
	</g>
	<g clip-path="url(#Clip_1_)">
	</g>
	<g clip-path="url(#Clip_1_)">
	</g>
	<g clip-path="url(#Clip_1_)">
	</g>
	<g clip-path="url(#Clip_1_)">
	</g>
	<g clip-path="url(#Clip_1_)">
	</g>
	<g clip-path="url(#Clip_1_)">
	</g>
	<g clip-path="url(#Clip_1_)">
	</g>
	<g clip-path="url(#Clip_1_)">
	</g>
</g>
</svg>
